<svg xmlns="http://www.w3.org/2000/svg" viewBox="66 138 413.69000244140625 273"> <svg xmlns="http://www.w3.org/2000/svg"
    xmlns:xlink="http://www.w3.org/1999/xlink" version="1.1" id="Layer_1" x="136" y="208"
    viewBox="74.47437286376953 74.48906707763672 138.999267578125 139.21575927734375" xml:space="preserve" height="133"
    width="132.79317634867675" preserveAspectRatio="xMinYMin" enable-background="new 0 0 288 288"
    style="overflow: visible;">
    <polygon class="st0" points="173.2,117.4 173.2,139 145.4,110.3 145.4,85.9  "
      style="fill: #5F47DD; fill-opacity: 1;"></polygon>
    <polygon class="st0" points="173.2,147.4 173.2,173.2 145.4,145.3 145.4,118.7  "
      style="fill: #5F47DD; fill-opacity: 1;"></polygon>
    <path class="st1"
      d="M213.2,138.6c-0.2,1.8-0.1,3.6-0.2,5.5c-0.4,7.1-2.1,14.1-4.7,20.7c-3.9,9.8-10.3,18.6-18.4,25.3   c-5,4.2-10.7,7.7-16.7,10.2v-18.9l-27.8-27.8v51.8c-1.9-0.1-3.8-0.2-5.7-0.5V85.9l-6.5,15.3v102.7c-1.2-0.3-2.5-0.6-3.7-1v-84.3   l-6.5,11.2v70.9c-1-0.4-2-0.8-2.9-1.3v-46.1l-6.5,6.6V196c-2.2-1.4-4.4-2.9-6.5-4.5c-9.8-7.7-17.3-18.4-21.4-30.2   c-3.6-10.5-4.5-22-2.5-33c1.4-7.8,4.3-15.3,8.4-22.1c7.3-12.1,18.6-21.7,31.7-26.9c7.8-3.1,16.1-4.7,24.5-4.7   c-8.7-0.5-17.4,0.7-25.6,3.4c-12.8,4.2-24.4,12.3-32.8,22.9c-12,15.1-17.2,35.3-14,54.4c1.5,9.3,5,18.2,10,26.2   c7.2,11.3,17.8,20.5,30,26c7.9,3.5,16.4,5.6,25,6.1c14.2,0.8,28.6-3,40.7-10.7c8.1-5.1,15.2-11.9,20.5-19.9   c6.6-9.7,10.6-21.1,11.6-32.8C213.7,146.3,213.4,142.4,213.2,138.6z"
      style="fill: #47A9F1;"></path>
  </svg></svg>
